<?xml version="1.0" encoding="utf-8"?>
<!-- Generator: Adobe Illustrator 24.3.0, SVG Export Plug-In . SVG Version: 6.00 Build 0)  -->
<svg version="1.1" id="Layer_1" xmlns="http://www.w3.org/2000/svg" xmlns:xlink="http://www.w3.org/1999/xlink" x="0px" y="0px"
	 viewBox="0 0 418.2 331.9" style="enable-background:new 0 0 418.2 331.9;" xml:space="preserve">
<style type="text/css">
	.st0{fill:url(#SVGID_1_);}
	.st1{fill:url(#SVGID_2_);}
	.st2{fill:url(#SVGID_3_);}
</style>
<g>
	
		<linearGradient id="SVGID_1_" gradientUnits="userSpaceOnUse" x1="-538.5751" y1="659.9308" x2="-538.5751" y2="730.7389" gradientTransform="matrix(5.2245 0 0 5.2245 3167.9016 -3488.7786)">
		<stop  offset="0" style="stop-color:#00EFD1"/>
		<stop  offset="1" style="stop-color:#00ACEA"/>
	</linearGradient>
	<path class="st0" d="M413.9,155.3L317.3,52.9c-5.7-6.3-15.7-6.8-21.9-0.5c-6.3,5.7-6.8,15.7-0.5,21.9l86.2,92l-86.7,91.4
		c-5.7,6.3-5.7,16.2,0.5,21.9c3.1,2.6,6.8,4.2,11,4.2c4.2,0,8.4-1.6,11.5-4.7l96.7-102.4C419.7,171,419.7,161.6,413.9,155.3z"/>
	
		<linearGradient id="SVGID_2_" gradientUnits="userSpaceOnUse" x1="-594.0679" y1="659.9308" x2="-594.0679" y2="730.7389" gradientTransform="matrix(5.2245 0 0 5.2245 3167.9016 -3488.7786)">
		<stop  offset="0" style="stop-color:#00EFD1"/>
		<stop  offset="1" style="stop-color:#00ACEA"/>
	</linearGradient>
	<path class="st1" d="M123.4,52.4c-6.3-5.7-16.2-5.7-21.9,0.5L4.3,155.3c-5.7,6.3-5.7,15.7,0,21.4L101,279.1
		c3.1,3.1,7.3,4.7,11.5,4.7c3.7,0,7.8-1.6,11-4.2c6.3-5.7,6.8-15.7,0.5-21.9l-86.7-91.4L124,74.8C129.7,68.6,129.7,58.6,123.4,52.4z
		"/>
	
		<linearGradient id="SVGID_3_" gradientUnits="userSpaceOnUse" x1="-566.2397" y1="659.9308" x2="-566.2397" y2="730.7389" gradientTransform="matrix(5.2245 0 0 5.2245 3167.9016 -3488.7786)">
		<stop  offset="0" style="stop-color:#00EFD1"/>
		<stop  offset="1" style="stop-color:#00ACEA"/>
	</linearGradient>
	<path class="st2" d="M234.7,0.1c-8.4-1-16.7,4.7-17.8,13.1l-46,300.9c-1,8.4,4.7,16.7,13.1,17.8c1,0,1.6,0,2.6,0
		c7.8,0,14.1-5.7,15.7-13.1l46-300.9C248.8,9.5,243.1,1.7,234.7,0.1z"/>
</g>
</svg>
