<?xml version="1.0" encoding="utf-8"?>
<!-- Generator: Adobe Illustrator 24.3.0, SVG Export Plug-In . SVG Version: 6.00 Build 0)  -->
<svg version="1.1" id="Layer_1" xmlns="http://www.w3.org/2000/svg" xmlns:xlink="http://www.w3.org/1999/xlink" x="0px" y="0px"
	 viewBox="0 0 500 372.6" style="enable-background:new 0 0 500 372.6;" xml:space="preserve">
<style type="text/css">
	.st0{fill:#EBEBEB;}
	.st1{fill:#F0F0F0;}
	.st2{fill:#F5F5F5;}
	.st3{fill:#E6E6E6;}
	.st4{fill:#FFFFFF;}
	.st5{fill:#FAFAFA;}
	.st6{opacity:0.4;fill:#E6E6E6;enable-background:new    ;}
	.st7{fill:#E0E0E0;}
	.st8{fill:#407BFF;}
	.st9{opacity:0.2;enable-background:new    ;}
	.st10{opacity:0.6;fill:#FFFFFF;enable-background:new    ;}
	.st11{opacity:0.3;enable-background:new    ;}
	.st12{fill:#263238;}
	.st13{opacity:0.4;fill:#FFFFFF;enable-background:new    ;}
	.st14{fill:#B55B52;}
	.st15{fill:#A02724;}
	.st16{opacity:0.2;}
	.st17{opacity:0.4;enable-background:new    ;}
</style>
<g id="freepik--background-complete--inject-31">
	<rect y="327.4" class="st0" width="500" height="0.2"/>
	<rect x="131.5" y="342.8" class="st0" width="33.1" height="0.2"/>
	<rect x="250.1" y="340.1" class="st0" width="8.7" height="0.2"/>
	<rect x="52.5" y="335.9" class="st0" width="19.2" height="0.2"/>
	<rect x="389.7" y="334.2" class="st0" width="26.1" height="0.2"/>
	<rect x="357.4" y="334.2" class="st0" width="23.4" height="0.2"/>
	<rect x="356.2" y="346.2" class="st0" width="93.7" height="0.2"/>
	<path class="st0" d="M237,282.8H43.9c-3.1,0-5.7-2.6-5.7-5.7V5.7c0-3.1,2.6-5.7,5.7-5.7H237c3.2,0,5.7,2.6,5.7,5.7c0,0,0,0,0,0
		v271.4C242.7,280.2,240.2,282.8,237,282.8z M43.9,0.2c-3,0-5.5,2.4-5.5,5.5v271.4c0,3,2.4,5.5,5.5,5.5H237c3,0,5.5-2.4,5.5-5.5V5.7
		c0-3-2.4-5.5-5.5-5.5H43.9z"/>
	<path class="st0" d="M453.3,282.8H260.2c-3.2,0-5.7-2.6-5.7-5.7V5.7c0-3.1,2.6-5.7,5.7-5.7h193.1c3.1,0,5.7,2.5,5.7,5.7v271.4
		C459,280.2,456.5,282.8,453.3,282.8z M260.2,0.2c-3,0-5.5,2.4-5.5,5.5v271.4c0,3,2.4,5.5,5.5,5.5h193.1c3,0,5.5-2.4,5.5-5.5V5.7
		c0-3-2.4-5.5-5.5-5.5H260.2z"/>
	<rect x="318.6" y="221.4" class="st1" width="23.5" height="103"/>
	<rect x="234" y="324.4" class="st1" width="103.7" height="3"/>
	<rect x="229.4" y="221.4" class="st2" width="89.2" height="103"/>
	<rect x="238.7" y="227.2" class="st1" width="70.7" height="43.4"/>
	<rect x="238.7" y="275.2" class="st1" width="70.7" height="43.4"/>
	<path class="st2" d="M292.3,234.7h-36.6c-4.8,0-8.7-3.9-8.7-8.7c0,0,0,0,0-0.1h54C301,230.8,297.1,234.7,292.3,234.7
		C292.3,234.7,292.3,234.7,292.3,234.7z"/>
	<path class="st2" d="M292.3,282.8h-36.6c-4.8,0-8.7-3.9-8.7-8.7l0,0h54C301,278.9,297.1,282.8,292.3,282.8z"/>
	<rect x="414.8" y="221.4" class="st1" width="23.5" height="103"/>
	<rect x="330.1" y="324.4" class="st1" width="103.7" height="3"/>
	<rect x="325.6" y="221.4" class="st2" width="89.2" height="103"/>
	<rect x="334.9" y="227.2" class="st1" width="70.7" height="43.4"/>
	<rect x="334.9" y="275.2" class="st1" width="70.7" height="43.4"/>
	<path class="st2" d="M388.5,234.7h-36.6c-4.8,0-8.7-3.9-8.7-8.7l0,0h54C397.2,230.8,393.3,234.7,388.5,234.7z"/>
	<path class="st2" d="M388.5,282.8h-36.6c-4.8,0-8.7-3.9-8.7-8.7l0,0h54C397.2,278.9,393.3,282.8,388.5,282.8z"/>
	<rect x="111.4" y="36.3" class="st3" width="40.3" height="46.6"/>
	<rect x="106.8" y="36.3" class="st2" width="43.9" height="46.6"/>
	<rect x="110.5" y="40" class="st4" width="36.5" height="39.3"/>
	<path class="st2" d="M138.2,69.8v-1.4c0-10.4-8.4-18.8-18.8-18.8l0,0v1.4C119.4,61.3,127.8,69.8,138.2,69.8z"/>
	<rect x="286.6" y="29.1" class="st3" width="151.7" height="141.9"/>
	<rect x="281.9" y="29.1" class="st1" width="154.2" height="141.9"/>
	<rect x="286.6" y="170.9" class="st3" width="151.7" height="5.1"/>
	<rect x="274.1" y="170.9" class="st1" width="154.2" height="5.1"/>
	<rect x="288.5" y="36.7" class="st5" width="141" height="126.7"/>
	<polygon class="st4" points="389.6,163.3 366.1,36.7 327.4,36.7 350.9,163.3 	"/>
	<path class="st1" d="M426.5,120.4c0.3,0,0.5-0.3,0.5-0.5V41.6c0-0.3-0.2-0.5-0.5-0.5s-0.5,0.2-0.5,0.5l0,0v78.2
		C426,120.1,426.2,120.3,426.5,120.4z"/>
	<polygon class="st4" points="342.5,163.3 319.1,36.7 304,36.7 327.5,163.3 	"/>
	<rect x="288.5" y="36.7" class="st3" width="0.8" height="126.7"/>
	<polygon class="st6" points="280.4,46.4 432.1,46.4 432.7,39.6 281,39.6 	"/>
	<polygon class="st6" points="280.4,54.2 432.1,54.2 432.7,47.4 281,47.4 	"/>
	<polygon class="st6" points="280.4,62 432.1,62 432.7,55.2 281,55.2 	"/>
	<polygon class="st6" points="280.4,69.8 432.1,69.8 432.7,63.1 281,63.1 	"/>
	<polygon class="st6" points="280.4,77.6 432.1,77.6 432.7,70.9 281,70.9 	"/>
	<polygon class="st6" points="280.4,85.4 432.1,85.4 432.7,78.7 281,78.7 	"/>
	<polygon class="st6" points="280.4,93.2 432.1,93.2 432.7,86.5 281,86.5 	"/>
	<polygon class="st6" points="280.4,101.1 432.1,101.1 432.7,94.3 281,94.3 	"/>
	<polygon class="st6" points="280.4,108.9 432.1,108.9 432.7,102.1 281,102.1 	"/>
	<rect x="82.8" y="122.9" class="st3" width="31.5" height="36.1"/>
	<rect x="79.3" y="122.9" class="st2" width="34" height="36.1"/>
	<rect x="82.1" y="125.7" class="st4" width="28.3" height="30.4"/>
	<path class="st2" d="M103.5,141.5v-1.1c0-4-3.3-7.3-7.3-7.3c0,0,0,0,0,0l0,0c-4,0-7.2,3.3-7.2,7.3v1.1c0,4,3.3,7.3,7.3,7.3l0,0
		C100.3,148.8,103.5,145.5,103.5,141.5z"/>
	<rect x="161.3" y="96.3" class="st3" width="43.2" height="49.8"/>
	<rect x="156.4" y="96.3" class="st2" width="46.8" height="49.8"/>
	<rect x="160.3" y="100.2" class="st4" width="39" height="41.9"/>
	<path class="st2" d="M181.4,113.4l7.4,12.8c0.5,0.9,0.2,2-0.7,2.6c-0.3,0.2-0.6,0.3-0.9,0.3h-14.8c-1,0-1.9-0.8-1.9-1.9
		c0-0.3,0.1-0.7,0.3-0.9l7.4-12.8c0.5-0.9,1.7-1.2,2.6-0.7C181.1,112.9,181.3,113.1,181.4,113.4z"/>
	<rect x="90" y="252.5" class="st3" width="23.8" height="74.9"/>
	<polygon class="st1" points="94.5,327.4 90,327.4 90,314.6 99.3,314.6 	"/>
	<rect x="178.8" y="252.5" class="st3" width="23.8" height="74.9"/>
	<rect x="90" y="252.5" class="st1" width="92.7" height="67"/>
	<rect x="93.5" y="256.7" class="st3" width="41.3" height="46.8"/>
	<rect x="137.9" y="256.7" class="st3" width="41.3" height="46.8"/>
	<path class="st1" d="M154.5,260.3h8.2c3.5,0,6.9-1.4,9.4-4h-27C147.5,258.9,150.9,260.3,154.5,260.3z"/>
	<path class="st1" d="M109.7,260.3h8.2c3.5,0,6.9-1.4,9.4-4h-27C102.7,258.9,106.1,260.3,109.7,260.3z"/>
	<polygon class="st1" points="178.2,327.4 182.7,327.4 182.7,314.6 173.5,314.6 	"/>
	<path class="st7" d="M153.8,242.5c0,2.8,2.3,5.2,5.1,5.2c2.8,0,5.2-2.3,5.2-5.1c0-2.8-2.3-5.2-5.1-5.2c0,0,0,0,0,0
		C156.1,237.3,153.8,239.6,153.8,242.5z"/>
	<circle class="st7" cx="161.2" cy="239.1" r="5.1"/>
	<path class="st7" d="M128,243.3c0,2.8,2.3,5.1,5.1,5.1s5.1-2.3,5.1-5.1c0-2.8-2.3-5.1-5.1-5.1S128,240.5,128,243.3L128,243.3z"/>
	<circle class="st7" cx="168.1" cy="240" r="6.3"/>
	<path class="st7" d="M149.3,234.2c0,3.5,2.8,6.3,6.3,6.3c3.5,0,6.3-2.8,6.3-6.3c0-3.5-2.8-6.3-6.3-6.3c0,0,0,0,0,0
		C152.1,227.9,149.3,230.7,149.3,234.2z"/>
	<path class="st7" d="M139.3,235.8c0,3.5,2.8,6.3,6.3,6.3c3.5,0,6.3-2.8,6.3-6.3c0-3.5-2.8-6.3-6.3-6.3c0,0,0,0,0,0
		C142.1,229.5,139.3,232.3,139.3,235.8z"/>
	<path class="st7" d="M143.5,240.9c0,3.3,2.7,6,6,6s6-2.7,6-6s-2.7-6-6-6S143.5,237.6,143.5,240.9z"/>
	<path class="st7" d="M133.1,240.5c0,3.6,2.9,6.5,6.5,6.5s6.5-2.9,6.5-6.5c0-3.6-2.9-6.5-6.5-6.5C136,234,133.1,236.9,133.1,240.5
		L133.1,240.5z"/>
	<path class="st1" d="M178.2,242.5c0,0-0.7,10-27.8,10s-27.8-10-27.8-10H178.2z"/>
</g>
<g id="freepik--Shadow--inject-31">
	<ellipse id="freepik--path--inject-31" class="st2" cx="250" cy="361.2" rx="193.9" ry="11.3"/>
</g>
<g id="freepik--Desk--inject-31">
	<rect x="101.8" y="231.5" class="st8" width="231.5" height="3.7"/>
	<rect x="333.4" y="231.5" class="st8" width="50.2" height="3.7"/>
	<rect x="333.4" y="231.5" class="st9" width="50.2" height="3.7"/>
	<polygon class="st8" points="366.8,239.2 118.6,239.2 110.3,235.2 375.1,235.2 	"/>
	<polygon class="st10" points="366.8,239.2 118.6,239.2 110.3,235.2 375.1,235.2 	"/>
	<polygon class="st8" points="126.1,239.2 126.1,357.5 129.3,357.5 133.3,239.2 	"/>
	<polygon class="st8" points="163.6,239.2 163.6,357.5 166.8,357.5 170.8,239.2 	"/>
	<polygon class="st8" points="366.8,239.2 366.8,357.5 363.7,357.5 359.6,239.2 	"/>
	<polygon class="st8" points="329.3,239.2 329.3,357.5 326.1,357.5 322.1,239.2 	"/>
	<polygon class="st8" points="253.7,186.6 243.3,229.2 243.3,229.2 243,231.5 315.1,231.5 315.4,229.2 325.8,186.6 	"/>
	<polygon class="st11" points="253.7,186.6 243.3,229.2 243.3,229.2 243,231.5 315.1,231.5 315.4,229.2 325.8,186.6 	"/>
	<polygon class="st8" points="323.6,186.6 251.5,186.6 241.1,229.2 313.2,229.2 	"/>
	<polygon class="st4" points="311.6,227.2 321.1,188.5 253.1,188.5 243.6,227.2 	"/>
	<polygon class="st8" points="294.4,229.2 294.1,231.5 214.7,231.5 215,229.2 	"/>
	<polygon class="st10" points="294.4,229.2 294.1,231.5 214.7,231.5 215,229.2 	"/>
	<path class="st8" d="M144.4,223.8c-0.1-3.1-2.5-5.7-5.6-6.1v-1.1c0-0.3-0.2-0.5-0.5-0.5c0,0,0,0,0,0h-10.8c-0.3,0-0.5,0.2-0.5,0.5
		c0,0,0,0,0,0v15h11.9v-1.6C141.9,229.5,144.3,226.9,144.4,223.8z M138.8,227.9v-8.3c2.3,0.3,3.9,2.5,3.6,4.8
		C142.1,226.2,140.6,227.7,138.8,227.9z"/>
	<polygon class="st12" points="346.6,231.5 356.6,231.5 353.6,209.5 346.6,209.5 	"/>
	<polygon class="st8" points="331.8,231.5 350.9,231.5 354.4,205.8 335.4,205.8 	"/>
	<polygon class="st11" points="331.8,231.5 350.9,231.5 354.4,205.8 335.4,205.8 	"/>
	<polygon class="st8" points="329.3,231.5 349.1,231.5 352.6,205.8 332.8,205.8 	"/>
	<polygon class="st13" points="347.3,229.5 350.3,207.8 334.6,207.8 331.6,229.5 	"/>
</g>
<g id="freepik--Character--inject-31">
	<path class="st14" d="M197.5,193.5l-0.8,0.9l-0.9,1c-0.6,0.7-1.2,1.4-1.7,2.1c-1.1,1.4-2.2,2.9-3.2,4.4c-2,2.9-3.7,6-5,9.2
		c-0.6,1.5-1.1,3.1-1.4,4.8c-0.2,0.9-0.3,1.3-0.3,1.7c-0.1,0.3-0.1,0.6,0,0.9c0.3,1,1.1,1.8,2,2.2c0.7,0.4,1.4,0.8,2.1,1.1
		c0.4,0.2,0.8,0.3,1.2,0.5c0.4,0.1,0.9,0.3,1.2,0.4v5.5c-0.7,0.1-1.2,0.2-1.8,0.2s-1.2,0-1.8,0c-1.2,0-2.4-0.2-3.6-0.5
		c-1.3-0.3-2.6-0.8-3.8-1.5c-1.4-0.8-2.6-1.9-3.5-3.2c-0.9-1.4-1.6-3-1.8-4.7c-0.1-0.4-0.1-0.8-0.1-1.2c0-0.4,0-0.8,0-1.1v-0.6
		c0-0.1,0-0.3,0-0.5l0.1-0.9c0.3-2.3,0.7-4.5,1.4-6.7c1.4-4.2,3.3-8.2,5.7-11.9c1.2-1.8,2.4-3.6,3.8-5.2c0.7-0.8,1.4-1.7,2.1-2.5
		c0.4-0.4,0.7-0.8,1.1-1.2s0.7-0.8,1.2-1.2L197.5,193.5z"/>
	<path class="st14" d="M188.6,222.5l4.7-3.4l2.6,9.6c0,0-4.1,1.5-7.3-0.5L188.6,222.5z"/>
	<polygon class="st14" points="199.8,216.8 201.6,224.9 196,228.7 193.3,219.1 	"/>
	<path class="st12" d="M229.2,156.8c-0.2,0.6-0.1,1.2,0.3,1.3s0.9-0.2,1.1-0.8s0.1-1.2-0.3-1.3S229.5,156.1,229.2,156.8z"/>
	<path class="st15" d="M229.1,157.9c0.1,2.1,0.4,4.1,1.1,6.1c-1,0.3-2.1,0.1-3-0.5L229.1,157.9z"/>
	<path class="st12" d="M228.3,152.7c0.1,0,0.2,0,0.2,0c0.9-0.3,1.9-0.1,2.6,0.4c0.2,0.1,0.4,0.1,0.5-0.1c0.1-0.1,0.1-0.3,0-0.5
		c-1-0.7-2.2-0.9-3.3-0.6c-0.2,0.1-0.3,0.3-0.2,0.5C228.1,152.6,228.2,152.7,228.3,152.7L228.3,152.7z"/>
	<path class="st14" d="M207.3,158.9c1.1,5.7,2.2,16.1-1.8,19.9c0,0,1.6,5.8,12.1,5.8c11.6,0,5.6-5.8,5.6-5.8
		c-6.4-1.5-6.2-6.2-5.1-10.6L207.3,158.9z"/>
	<path class="st12" d="M204.1,180.8c-0.8-1.8-1.8-3.9,0.1-4.6c2.1-0.7,13.5-1.5,17.5-0.1c2.2,0.6,3.4,2.8,2.9,5c0,0,0,0.1,0,0.1
		L204.1,180.8z"/>
	<path class="st14" d="M244,190.6c2.4,4.4,5.1,8.9,7.7,13.3c2.7,4.4,5.4,8.7,8.4,12.7c0.7,1,1.5,2,2.3,2.9c0.4,0.5,0.8,0.9,1.2,1.3
		l0.6,0.7l0.1,0.2l0.1,0.1l0,0l0.1,0.1c0.5,0.5,1,0.8,1.6,1c0.9,0.3,1.9,0.6,2.9,0.7c4.9,0.5,9.8,0.4,14.6-0.2l1.5,5.3
		c-1.4,0.6-2.6,1-4,1.5s-2.7,0.8-4,1.2c-2.8,0.7-5.8,1.1-8.7,1.2c-1.6,0-3.3-0.1-4.9-0.5c-2-0.4-3.8-1.2-5.4-2.4l-0.7-0.5l-0.2-0.1
		l-0.1-0.1l-0.2-0.2l-0.8-0.8c-0.5-0.5-1.1-1-1.5-1.5c-1-1-1.9-2.1-2.8-3.2c-3.5-4.2-6.7-8.7-9.6-13.3c-1.5-2.3-2.9-4.6-4.2-6.9
		c-1.4-2.4-2.7-4.6-3.9-7.1L244,190.6z"/>
	<path class="st8" d="M191.6,180.6c-7.3,1.7-15.7,21.6-15.7,21.6l14.6,10c3.6-5.2,6.9-10.7,9.7-16.4
		C204.6,186.7,199.1,178.9,191.6,180.6z"/>
	<path class="st9" d="M196.9,193.3l-6.9,18.4l0.7,0.5c0,0,3-4.2,6.2-9.9V193.3z"/>
	<path class="st8" d="M235.2,181c0,0,8.3,9.4,0.5,67.3h-41.6c-0.3-6.4,3.7-37.5-2.4-67.7c4.6-0.9,9.3-1.5,13.9-1.8
		c5.9-0.3,11.8-0.3,17.7,0C227.3,179.2,231.3,180,235.2,181z"/>
	<path class="st9" d="M230.6,197.8c1.1,6.6,3.9,12.7,8.2,17.8c0.2-3.7,0.2-7.1,0.2-10.1L230.6,197.8z"/>
	<path class="st8" d="M227,187.3c-1,7.4,13.5,26.2,13.5,26.2l14.6-10c0,0-4.1-10.4-10.9-17.2C236.5,178.5,228.1,179.3,227,187.3z"/>
	<path class="st14" d="M282,223.4l5.9-2.4l6.1,4.6c0,0-5.8,5.2-11.1,3.1L282,223.4z"/>
	<polygon class="st14" points="291.9,220.7 296.3,223.9 294,225.6 287.9,221 	"/>
	<path class="st14" d="M209.9,148.6c-2.1,7.4-3.7,11.7-1.3,16.7c3.6,7.6,13.7,7.3,18,0.7c3.8-6,6.6-17.2,0.5-22.5
		c-4.4-3.9-11-3.5-14.9,0.9C211.1,145.6,210.3,147,209.9,148.6z"/>
	<path class="st12" d="M225.8,148.7c-3,8.5-6.5,17.9-15.1,16.1c-5.6-1.1-6-10.1-8-14.2c-1.8-3.6-1.7-10.8,2-10.8
		c-1.6-2.4,6.6-11.1,12.3-6.5c1.4-2,11.9-7.9,19.6,1.5C243.8,143.6,240.3,151,225.8,148.7z"/>
	<path class="st14" d="M219,154.1c-0.2,1.9,0.2,3.8,1.2,5.5c1.3,2.1,3.3,1.3,4-0.9c0.6-2,0.7-5.4-1.1-6.8S219.3,151.9,219,154.1z"/>
	<path class="st8" d="M282.9,351.9c1,0,2-0.1,2.3-0.6c0.2-0.2,0.2-0.6,0-0.8c-0.1-0.2-0.3-0.4-0.6-0.4c-1.3-0.4-4,1.2-4.1,1.3
		c-0.1,0-0.1,0.1-0.1,0.2c0,0.1,0.1,0.1,0.1,0.1C281.3,351.8,282.1,351.9,282.9,351.9z M284.1,350.4c0.1,0,0.2,0,0.4,0
		c0.2,0,0.3,0.1,0.4,0.3c0.1,0.2,0.1,0.3,0,0.4c-0.4,0.5-2.3,0.5-3.8,0.3C282,350.8,283,350.5,284.1,350.4z"/>
	<path class="st8" d="M280.5,351.7L280.5,351.7c1-0.4,2.9-2.1,2.7-3c0-0.2-0.2-0.5-0.7-0.5c-0.4,0-0.7,0.1-1,0.3
		c-1,0.8-1.2,2.9-1.2,3C280.4,351.5,280.4,351.6,280.5,351.7C280.5,351.6,280.5,351.7,280.5,351.7z M282.4,348.5h0.1
		c0.3,0,0.4,0.2,0.4,0.2c0.1,0.5-1.2,1.9-2.1,2.4c0.1-0.9,0.4-1.7,1-2.4C281.9,348.6,282.2,348.5,282.4,348.5z"/>
	<polygon class="st14" points="271.5,351.5 279.3,351.5 281,333.5 273.2,333.5 	"/>
	<path class="st12" d="M279.7,350.6h-8.5c-0.3,0-0.6,0.2-0.7,0.5L269,358c-0.1,0.6,0.2,1.2,0.8,1.4c0.1,0,0.2,0,0.3,0
		c3.1,0,7.5-0.2,11.3-0.2c4.5,0,8.4,0.2,13.7,0.2c3.2,0,4.1-3.2,2.8-3.5c-6.1-1.3-11.1-1.5-16.3-4.7
		C281,350.8,280.4,350.6,279.7,350.6z"/>
	<polygon class="st9" points="281,333.5 280.1,342.8 272.3,342.8 273.2,333.5 	"/>
	<path class="st8" d="M251.7,351.9c0.7,0.1,1.3-0.1,1.9-0.5c0.2-0.3,0.2-0.6,0-0.9c-0.1-0.2-0.3-0.4-0.6-0.4
		c-1.1-0.3-3.3,1.2-3.4,1.3c-0.1,0-0.1,0.1-0.1,0.2c0,0.1,0.1,0.1,0.1,0.1C250.3,351.8,251,351.9,251.7,351.9z M252.7,350.4
		c0.1,0,0.1,0,0.2,0c0.1,0,0.3,0.1,0.3,0.2c0.2,0.3,0.1,0.4,0,0.5c-0.3,0.4-1.9,0.4-3.1,0.2C250.9,350.9,251.8,350.5,252.7,350.4
		L252.7,350.4z"/>
	<path class="st8" d="M249.7,351.7L249.7,351.7c0.9-0.4,2.4-2.1,2.3-3c-0.1-0.3-0.3-0.5-0.6-0.5c-0.3,0-0.6,0.1-0.8,0.2
		c-0.9,0.7-1.1,3-1.1,3.1c0,0.1,0,0.1,0.1,0.2C249.6,351.7,249.7,351.7,249.7,351.7z M251.3,348.5L251.3,348.5
		c0.3,0,0.3,0.1,0.4,0.2c0.1,0.5-0.9,1.8-1.7,2.4c0.1-0.9,0.4-1.7,0.9-2.4C251,348.6,251.1,348.5,251.3,348.5L251.3,348.5z"/>
	<polygon class="st14" points="240.8,351.5 248.6,351.5 252.5,333.5 244.7,333.5 	"/>
	<path class="st12" d="M249.1,350.6h-8.7c-0.3,0-0.6,0.2-0.7,0.5l-1.5,6.9c-0.1,0.6,0.3,1.2,0.9,1.4c0.1,0,0.2,0,0.3,0
		c3.1,0,4.5-0.2,8.4-0.2c2.4,0,5.4,0.2,8.7,0.2c3.3,0,3.7-3.2,2.4-3.5c-6-1.3-6.4-3.1-8.3-4.9C250,350.7,249.6,350.6,249.1,350.6z"
		/>
	<g class="st16">
		<polygon points="244.7,333.5 252.5,333.5 250.5,342.8 242.7,342.8 		"/>
	</g>
	<path class="st12" d="M235.7,248.3c0,0,58.3,6.2,57.7,35.9c-0.4,18.7-4,37.1-10.6,54.6h-11.6c0,0,0.6-18.9,0.2-49.3
		c-0.1-9.1-18.6-12.1-36.6-13.2c-15.6-1-29.2-10.7-35.2-25.1l-1.2-2.9L235.7,248.3z"/>
	<path class="st8" d="M285.6,335.7c0.1,0-0.8,5.5-0.8,5.5h-16l-0.4-4.9L285.6,335.7z"/>
	<path class="st12" d="M223.2,248.3c0,0,42.3,14,43.3,31.4c2,31.9-13.7,59.2-13.7,59.2h-11.7c0,0,4.4-13.5,6-42.4
		c2-36.4-65.8-0.1-53.1-48.1H223.2z"/>
	<path class="st8" d="M256.4,335.7c0.1,0-1.5,5.5-1.5,5.5h-16l0.3-4.9L256.4,335.7z"/>
	<path class="st8" d="M253.7,278.9h-65c0-4.1,3.3-7.4,7.4-7.4h0h50.2C250.4,271.5,253.7,274.8,253.7,278.9L253.7,278.9z"/>
	<polygon class="st8" points="191.7,278.9 181.9,361 184,361 196.4,278.9 	"/>
	<polygon class="st17" points="191.7,278.9 181.9,361 184,361 196.4,278.9 	"/>
	<polygon class="st8" points="204.8,278.9 204.6,361 206.7,361 209.6,278.9 	"/>
	<polygon class="st17" points="204.8,278.9 204.6,361 206.7,361 209.6,278.9 	"/>
	<polygon class="st8" points="250.7,278.9 260.5,361 258.4,361 246,278.9 	"/>
	<polygon class="st17" points="250.7,278.9 260.5,361 258.4,361 246,278.9 	"/>
	<polygon class="st8" points="237.6,278.9 237.8,361 235.7,361 232.9,278.9 	"/>
	<polygon class="st17" points="237.6,278.9 237.8,361 235.7,361 232.9,278.9 	"/>
</g>
</svg>
