<?xml version="1.0" encoding="utf-8"?>
<!-- Generator: Adobe Illustrator 24.3.0, SVG Export Plug-In . SVG Version: 6.00 Build 0)  -->
<svg version="1.1" id="Layer_1" xmlns:v="https://vecta.io/nano"
	 xmlns="http://www.w3.org/2000/svg" xmlns:xlink="http://www.w3.org/1999/xlink" x="0px" y="0px" viewBox="0 0 80 80"
	 style="enable-background:new 0 0 80 80;" xml:space="preserve">
<style type="text/css">
	.st0{clip-path:url(#SVGID_2_);}
	.st1{fill:#FD5631;}
</style>
<g>
	<defs>
		<rect id="SVGID_1_" x="0" y="0" width="80" height="80"/>
	</defs>
	<clipPath id="SVGID_2_">
		<use xlink:href="#SVGID_1_"  style="overflow:visible;"/>
	</clipPath>
	<g class="st0">
		<path class="st1" d="M75.7,8.6c0,0.6,0,1.1,0.4,1.6c0,0.4,0,0.7,0.3,1v0.1c0.1,0.6,1,0.6,1.3,0c0.1-0.3,0.1-0.1-0.1,0l0.4-0.4
			c0.1-0.3,0.1-0.6,0.1-0.9V8.5C78,7.6,78,6.7,77.9,5.9S76.1,5,76,5.9C75.7,6.7,75.7,7.7,75.7,8.6L75.7,8.6z M78.1,20.3
			c-0.3,2.6-0.9,5.1-0.9,7.7c0,1.6,2.4,1.6,2.4,0c0-2.6-0.7-5.1-0.9-7.7C78.7,19.9,78.1,19.9,78.1,20.3L78.1,20.3z M77.1,36.7
			c0.1,1.4,0.3,2.9,0.3,4.4c0,1-0.1,2,0.4,2.9c0.3,0.6,1.1,0.6,1.4,0c0.6-1.1,0.3-2.4,0.1-3.7c-0.1-1.4-0.6-2.7-1.1-4
			C77.9,35.6,77,36.2,77.1,36.7L77.1,36.7z M77.4,56.3c-0.4,1-0.9,1.9-0.6,3c0.1,0.7,1.1,0.9,1.6,0.4c1-0.9,1.3-2.6,1.4-3.9l0.1-3.7
			c0-0.9-1.3-0.9-1.4,0C78.4,53.6,78,54.9,77.4,56.3L77.4,56.3z M68.7,67c-0.4,0.3-0.4,0.9-0.1,1.1c1.1,0.9,2.9,0.1,4-0.4
			c1.1-0.7,2-1.7,2.4-3.1c0.3-0.6-0.9-1.1-1.1-0.4c-0.4,1.1-1.3,1.9-2.4,2.1C70.6,66.6,69.4,66.5,68.7,67L68.7,67z M54.6,68.6
			c-0.6,0.6,0,1.3,0.6,1.3c1,0.1,2.1-0.3,3.1-0.4s2-0.3,3-0.3c1-0.1,1-1.6,0-1.6C59.1,67.5,56.3,67,54.6,68.6L54.6,68.6z M39.1,68.3
			c-0.9,0.4-0.6,1.9,0.4,1.7c2.6-0.1,5-0.7,7.6-0.1c1,0.3,1.4-1.1,0.4-1.6C45,67.3,41.6,66.9,39.1,68.3L39.1,68.3z M24.7,69
			c2.1,0.7,4.9,0.3,7.1,0.1c1.1,0,1.1-1.7,0-1.7c-2.3-0.1-4.9-0.6-7.1,0.1C23.9,67.9,23.9,68.9,24.7,69z M11.1,67
			c-0.3,0.3-0.3,0.9,0.1,1c0.9,0.9,1.9,0.6,3,0.6c1.4,0,2.9,0.1,4.3,0.6c1.1,0.3,1.4-1.3,0.4-1.7c-1.4-0.4-2.8-0.7-4.3-0.9
			C13.4,66.5,12.1,66,11.1,67L11.1,67z M1.1,66c-1.1,0.3-1.6,1.9-0.6,2.9c1.7,1.9,7.1,7.7,9.9,5.3c0.6-0.6,0.4-1.4,0-2
			c-0.7-1-2.3-1.3-3.3-2L4.4,68c2.3-1.4,4.1-3.4,6.3-4.9c0.9-0.7,0.3-2.4-0.9-2C6.7,62.5,4.4,65.2,1.1,66L1.1,66z"/>
	</g>
</g>
</svg>
